<svg width="220" height="348" viewBox="0 0 220 348" fill="none" xmlns="http://www.w3.org/2000/svg">
<g clip-path="url(#clip0_1_58)">
<path d="M139.652 296.339C138.467 296.339 137.531 295.851 136.843 294.875C136.155 293.88 135.811 292.541 135.811 290.858C135.811 289.614 136.012 288.418 136.413 287.27C136.814 286.122 137.34 285.099 137.99 284.2C138.658 283.3 139.394 282.592 140.197 282.076C141.019 281.54 141.84 281.272 142.662 281.272C143.847 281.272 144.783 281.76 145.471 282.736C146.159 283.712 146.503 285.051 146.503 286.754C146.503 287.997 146.302 289.193 145.901 290.341C145.5 291.489 144.965 292.513 144.296 293.412C143.646 294.311 142.91 295.028 142.089 295.564C141.286 296.081 140.474 296.339 139.652 296.339ZM139.595 295.65C140.206 295.65 140.799 295.354 141.372 294.761C141.964 294.167 142.5 293.383 142.977 292.407C143.455 291.432 143.837 290.351 144.124 289.164C144.411 287.959 144.554 286.754 144.554 285.548C144.554 283.157 143.933 281.961 142.691 281.961C142.098 281.961 141.506 282.258 140.913 282.851C140.321 283.425 139.786 284.2 139.308 285.175C138.849 286.151 138.477 287.242 138.19 288.447C137.904 289.633 137.76 290.829 137.76 292.034C137.76 294.445 138.372 295.65 139.595 295.65Z" fill="white"/>
<path d="M131.966 296.339C131.278 296.339 130.762 296.052 130.418 295.478C130.074 294.904 130.055 294.014 130.361 292.809L132.568 284.487C132.779 283.74 132.807 283.224 132.654 282.937C132.521 282.65 132.32 282.506 132.052 282.506C131.67 282.506 131.231 282.774 130.734 283.31C130.237 283.826 129.711 284.534 129.157 285.434C128.622 286.333 128.097 287.356 127.581 288.504C127.065 289.652 126.587 290.848 126.147 292.092C125.708 293.335 125.345 294.56 125.058 295.765C125.001 295.975 124.867 296.081 124.657 296.081H123.539C123.271 296.081 123.166 295.956 123.223 295.708L125.861 284.487C126.033 283.74 126.052 283.224 125.918 282.937C125.803 282.65 125.612 282.506 125.345 282.506C124.982 282.506 124.552 282.774 124.055 283.31C123.558 283.826 123.042 284.534 122.507 285.434C121.972 286.333 121.446 287.356 120.93 288.504C120.414 289.652 119.936 290.848 119.497 292.092C119.057 293.335 118.704 294.56 118.436 295.765C118.379 295.975 118.245 296.081 118.035 296.081H116.86C116.592 296.081 116.487 295.956 116.544 295.708L119.268 284.257C119.363 283.836 119.373 283.511 119.296 283.281C119.239 283.032 119.067 282.908 118.78 282.908C118.436 282.908 118.054 283.166 117.634 283.683C117.232 284.18 116.774 285.137 116.258 286.553C116.181 286.802 116.048 286.926 115.856 286.926C115.57 286.926 115.493 286.754 115.627 286.409C116.048 285.089 116.487 284.056 116.946 283.31C117.423 282.564 117.901 282.038 118.379 281.731C118.857 281.425 119.296 281.272 119.698 281.272C120.328 281.272 120.777 281.511 121.045 281.99C121.312 282.449 121.322 283.214 121.074 284.286L120.357 287.385C120.338 287.519 120.366 287.596 120.443 287.615C120.519 287.634 120.586 287.586 120.644 287.471C121.752 285.175 122.755 283.568 123.653 282.65C124.552 281.731 125.373 281.272 126.119 281.272C126.826 281.272 127.323 281.559 127.609 282.133C127.915 282.707 127.934 283.587 127.667 284.774L127.065 287.385C127.046 287.519 127.074 287.596 127.151 287.615C127.227 287.634 127.294 287.586 127.351 287.471C128.077 285.921 128.756 284.697 129.387 283.798C130.036 282.879 130.648 282.229 131.221 281.846C131.794 281.464 132.33 281.272 132.826 281.272C133.533 281.272 134.049 281.559 134.374 282.133C134.699 282.707 134.699 283.587 134.374 284.774L132.196 293.096C132.062 293.632 132.052 294.034 132.167 294.301C132.282 294.569 132.492 294.703 132.798 294.703C133.18 294.703 133.553 294.454 133.916 293.957C134.298 293.44 134.69 292.474 135.091 291.058C135.148 290.848 135.272 290.743 135.464 290.743C135.616 290.743 135.702 290.8 135.722 290.915C135.76 291.03 135.76 291.164 135.722 291.317C135.358 292.618 134.967 293.641 134.546 294.388C134.126 295.115 133.696 295.622 133.256 295.909C132.836 296.196 132.406 296.339 131.966 296.339Z" fill="white"/>
<path d="M114.405 278.718C114.042 278.718 113.736 278.594 113.488 278.345C113.259 278.077 113.144 277.762 113.144 277.398C113.144 276.881 113.297 276.47 113.603 276.164C113.927 275.858 114.291 275.705 114.692 275.705C115.074 275.705 115.389 275.829 115.638 276.078C115.905 276.307 116.039 276.614 116.039 276.996C116.039 277.532 115.877 277.953 115.552 278.259C115.227 278.565 114.845 278.718 114.405 278.718ZM107.554 302.251C106.885 302.251 106.379 302.06 106.035 301.677C105.672 301.313 105.49 300.864 105.49 300.328C105.49 299.926 105.595 299.62 105.806 299.41C106.016 299.218 106.245 299.123 106.494 299.123C106.857 299.123 107.105 299.238 107.239 299.467C107.354 299.716 107.42 299.993 107.44 300.299C107.459 300.605 107.506 300.873 107.583 301.103C107.659 301.352 107.831 301.476 108.099 301.476C108.309 301.476 108.5 301.352 108.672 301.103C108.863 300.854 109.064 300.271 109.274 299.352L112.8 284.257C112.896 283.836 112.905 283.511 112.829 283.281C112.771 283.032 112.599 282.908 112.313 282.908C111.969 282.908 111.586 283.166 111.166 283.683C110.765 284.18 110.306 285.137 109.79 286.553C109.714 286.802 109.58 286.926 109.389 286.926C109.102 286.926 109.026 286.754 109.159 286.409C109.58 285.089 110.019 284.056 110.478 283.31C110.956 282.564 111.434 282.038 111.911 281.731C112.389 281.425 112.829 281.272 113.23 281.272C113.899 281.272 114.367 281.511 114.635 281.99C114.921 282.449 114.94 283.214 114.692 284.286L111.711 297.143C111.348 298.731 110.793 299.974 110.048 300.873C109.322 301.792 108.491 302.251 107.554 302.251Z" fill="white"/>
<path d="M102.249 296.339C101.064 296.339 100.128 295.851 99.4401 294.875C98.7521 293.88 98.4081 292.541 98.4081 290.858C98.4081 289.614 98.6088 288.418 99.0101 287.27C99.4114 286.122 99.937 285.099 100.587 284.2C101.256 283.3 101.991 282.592 102.794 282.076C103.616 281.54 104.437 281.272 105.259 281.272C106.444 281.272 107.38 281.76 108.068 282.736C108.756 283.712 109.1 285.051 109.1 286.754C109.1 287.997 108.9 289.193 108.498 290.341C108.097 291.489 107.562 292.513 106.893 293.412C106.243 294.311 105.508 295.028 104.686 295.564C103.883 296.081 103.071 296.339 102.249 296.339ZM102.192 295.65C102.803 295.65 103.396 295.354 103.969 294.761C104.562 294.167 105.097 293.383 105.574 292.407C106.052 291.432 106.434 290.351 106.721 289.164C107.008 287.959 107.151 286.754 107.151 285.548C107.151 283.157 106.53 281.961 105.288 281.961C104.695 281.961 104.103 282.258 103.511 282.851C102.918 283.425 102.383 284.2 101.905 285.175C101.447 286.151 101.074 287.242 100.787 288.447C100.501 289.633 100.357 290.829 100.357 292.034C100.357 294.445 100.969 295.65 102.192 295.65Z" fill="white"/>
<path d="M85.5521 295.708L88.2753 284.257C88.3709 283.836 88.3804 283.511 88.304 283.281C88.2467 283.032 88.0747 282.908 87.788 282.908C87.444 282.908 87.0618 283.166 86.6414 283.683C86.2401 284.18 85.7814 285.137 85.2655 286.553C85.189 286.802 85.0553 286.926 84.8642 286.926C84.5775 286.926 84.5011 286.754 84.6348 286.409C85.0553 285.089 85.4948 284.056 85.9534 283.31C86.4312 282.564 86.909 282.038 87.3867 281.731C87.8645 281.425 88.304 281.272 88.7053 281.272C89.336 281.272 89.7851 281.511 90.0526 281.99C90.3201 282.449 90.3297 283.214 90.0813 284.286L89.3646 287.385C89.3455 287.519 89.3742 287.596 89.4506 287.615C89.5271 287.634 89.594 287.586 89.6513 287.471C90.3966 285.921 91.1132 284.697 91.8012 283.798C92.4892 282.879 93.1389 282.229 93.7504 281.846C94.362 281.464 94.9162 281.272 95.413 281.272C96.1201 281.272 96.6361 281.559 96.961 282.133C97.2858 282.707 97.2858 283.587 96.961 284.774L94.7824 293.096C94.6486 293.632 94.6391 294.034 94.7537 294.301C94.8684 294.569 95.0786 294.703 95.3844 294.703C95.7666 294.703 96.1392 294.454 96.5023 293.957C96.8845 293.44 97.2763 292.474 97.6776 291.058C97.7349 290.848 97.8592 290.743 98.0503 290.743C98.2031 290.743 98.2891 290.8 98.3082 290.915C98.3465 291.03 98.3465 291.164 98.3082 291.317C97.9452 292.618 97.5534 293.641 97.133 294.388C96.7125 295.115 96.2826 295.622 95.843 295.909C95.4226 296.196 94.9926 296.339 94.5531 296.339C93.8651 296.339 93.3491 296.052 93.0051 295.478C92.6612 294.904 92.642 294.014 92.9478 292.809L95.155 284.487C95.3653 283.74 95.3939 283.224 95.241 282.937C95.1073 282.65 94.9066 282.506 94.6391 282.506C94.2186 282.506 93.7409 282.774 93.2058 283.31C92.6707 283.826 92.1261 284.544 91.5719 285.462C91.0177 286.362 90.473 287.385 89.9379 288.533C89.4028 289.681 88.9155 290.877 88.476 292.12C88.0556 293.364 87.7116 294.579 87.444 295.765C87.3867 295.975 87.2529 296.081 87.0427 296.081H85.8674C85.5999 296.081 85.4948 295.956 85.5521 295.708Z" fill="white"/>
<path d="M72.4016 296.081C72.1341 296.081 71.9716 296.004 71.9143 295.851C71.8379 295.698 71.8856 295.497 72.0576 295.248L84.5844 276.767C84.68 276.614 84.7087 276.499 84.6704 276.422C84.6322 276.327 84.5367 276.279 84.3838 276.279H81.8039C80.9439 276.279 80.1604 276.499 79.4533 276.939C78.7462 277.36 78.0583 278.221 77.3894 279.522L76.6441 280.957C76.5294 281.205 76.3766 281.33 76.1855 281.33C76.0708 281.33 75.9752 281.291 75.8988 281.215C75.8415 281.119 75.8415 280.995 75.8988 280.842L77.6474 275.504C77.7238 275.293 77.8003 275.131 77.8767 275.016C77.9723 274.901 78.106 274.844 78.278 274.844C78.4309 274.844 78.5551 274.892 78.6507 274.987C78.7462 275.083 78.9182 275.179 79.1667 275.274C79.4151 275.37 79.8355 275.418 80.4279 275.418H86.763C87.0306 275.418 87.2025 275.494 87.279 275.647C87.3554 275.781 87.3077 275.982 87.1357 276.25L74.6089 294.732C74.5133 294.866 74.4942 294.981 74.5515 295.076C74.6089 295.172 74.714 295.22 74.8669 295.22H78.02C78.8609 295.22 79.6349 295.038 80.342 294.674C81.0681 294.311 81.6988 293.555 82.2339 292.407L83.4092 289.911C83.5429 289.662 83.6958 289.537 83.8678 289.537C83.9634 289.537 84.0398 289.585 84.0971 289.681C84.1736 289.757 84.1927 289.872 84.1545 290.025L82.5492 295.421C82.4345 295.861 82.1479 296.081 81.6892 296.081H72.4016Z" fill="white"/>
<path d="M160.52 227.832C156.924 227.832 154.143 226.711 152.176 224.47C150.209 222.229 149.225 219.122 149.225 215.149V190.649H153.041V215.455C153.041 218.375 153.685 220.582 154.974 222.076C156.297 223.57 158.145 224.317 160.52 224.317C162.928 224.317 164.776 223.587 166.065 222.127C167.388 220.633 168.049 218.409 168.049 215.455V190.649H171.916V215.2C171.916 219.139 170.915 222.229 168.914 224.47C166.947 226.711 164.149 227.832 160.52 227.832Z" fill="white"/>
<path d="M132.4 227.832C130.297 227.832 128.398 227.39 126.702 226.508C125.006 225.591 123.531 224.3 122.276 222.637C121.055 220.973 120.105 218.969 119.427 216.626C118.782 214.283 118.46 211.685 118.46 208.833C118.46 205.064 119.037 201.787 120.19 199.003C121.343 196.184 122.954 194.011 125.023 192.483C127.126 190.921 129.568 190.14 132.349 190.14C135.165 190.14 137.607 190.921 139.676 192.483C141.779 194.011 143.407 196.184 144.56 199.003C145.747 201.787 146.341 205.081 146.341 208.884C146.341 211.736 146.001 214.334 145.323 216.677C144.645 218.986 143.695 220.973 142.474 222.637C141.253 224.3 139.777 225.591 138.048 226.508C136.352 227.39 134.469 227.832 132.4 227.832ZM132.349 224.317C134.385 224.317 136.148 223.689 137.641 222.433C139.167 221.142 140.337 219.343 141.151 217.034C141.965 214.691 142.372 211.94 142.372 208.782C142.372 205.658 141.965 202.976 141.151 200.734C140.337 198.459 139.184 196.711 137.692 195.488C136.199 194.266 134.418 193.654 132.349 193.654C130.28 193.654 128.5 194.266 127.007 195.488C125.515 196.677 124.379 198.408 123.599 200.683C122.819 202.925 122.429 205.624 122.429 208.782C122.429 211.974 122.819 214.742 123.599 217.085C124.413 219.394 125.566 221.176 127.058 222.433C128.551 223.689 130.314 224.317 132.349 224.317Z" fill="white"/>
<path d="M96.2628 227.323V190.649H100.079V227.323H96.2628ZM99.6207 208.273L114.68 190.649H119.513L104.25 208.273H99.6207ZM115.443 227.323L99.519 208.273H104.25L120.531 227.323H115.443Z" fill="white"/>
<path d="M72.7344 227.323V190.649H76.5502V227.323H72.7344ZM74.8712 227.323V223.91H92.3219V227.323H74.8712ZM74.8712 209.903V206.541H90.8465V209.903H74.8712ZM74.8712 194.062V190.649H91.9149V194.062H74.8712Z" fill="white"/>
<path d="M48.262 227.323V190.649H58.3355C60.6419 190.649 62.6092 191.091 64.2372 191.974C65.8653 192.822 67.1033 194.011 67.9512 195.539C68.8331 197.067 69.274 198.833 69.274 200.836C69.274 202.84 68.8331 204.622 67.9512 206.184C67.1033 207.746 65.8653 208.969 64.2372 209.852C62.6092 210.735 60.6419 211.176 58.3355 211.176H50.9584V207.763H58.2338C60.5063 207.763 62.27 207.135 63.5249 205.879C64.7799 204.588 65.4074 202.908 65.4074 200.836C65.4074 198.799 64.7799 197.169 63.5249 195.946C62.3039 194.69 60.5402 194.062 58.2338 194.062H52.0777V227.323H48.262ZM65.7126 227.323L50.0935 208.68H54.8759L70.9529 227.323H65.7126ZM56.097 186.931L49.6865 178.934H52.6882L59.811 185.912H56.3005L63.4232 178.934H66.374L59.9636 186.931H56.097Z" fill="white"/>
<path d="M128.072 179.613V176.2H135.297C137.773 176.2 139.859 175.606 141.555 174.417C143.285 173.229 144.607 171.514 145.523 169.273C146.439 166.998 146.897 164.264 146.897 161.072C146.897 157.914 146.439 155.249 145.523 153.076C144.641 150.868 143.335 149.205 141.606 148.084C139.91 146.929 137.807 146.352 135.297 146.352H127.92V142.94H135.297C138.485 142.94 141.233 143.67 143.539 145.13C145.879 146.556 147.677 148.627 148.932 151.344C150.187 154.06 150.814 157.337 150.814 161.174C150.814 165.011 150.17 168.305 148.881 171.056C147.626 173.806 145.845 175.929 143.539 177.423C141.233 178.883 138.502 179.613 135.348 179.613H128.072ZM125.579 179.613V142.94H129.395V179.613H125.579Z" fill="white"/>
<path d="M96.5285 179.613L107.416 142.94H110.672L100.141 179.613H96.5285ZM119.22 179.613L108.79 142.94H112.249L123.137 179.613H119.22ZM102.074 165.198H117.439V168.56H102.074V165.198Z" fill="white"/>
<path d="M70.6725 179.613V142.94H74.997L91.0232 173.806L90.4635 173.908V142.94H94.0757V179.613H89.7512L73.776 148.746L74.2847 148.644V179.613H70.6725Z" fill="white"/>
<path d="M121.605 133.306V96.6331H127.405L138.394 131.524H136.766L147.704 96.6331H153.555V133.306H149.74V100.3H150.096L139.666 133.306H135.138L124.759 100.453L125.064 100.402V133.306H121.605Z" fill="white"/>
<path d="M105.687 133.816C102.092 133.816 99.3106 132.695 97.3434 130.454C95.3762 128.213 94.3925 125.106 94.3925 121.133V96.6331H98.2083V121.439C98.2083 124.359 98.8527 126.566 100.142 128.06C101.464 129.554 103.313 130.301 105.687 130.301C108.095 130.301 109.944 129.571 111.233 128.111C112.555 126.617 113.217 124.393 113.217 121.439V96.6331H117.083V121.184C117.083 125.123 116.083 128.213 114.082 130.454C112.115 132.695 109.316 133.816 105.687 133.816ZM105.738 94.0354C104.178 94.0354 102.872 93.5091 101.821 92.4564C100.769 91.3698 100.243 90.0625 100.243 88.5344C100.243 87.0403 100.769 85.7669 101.821 84.7143C102.872 83.6277 104.178 83.0844 105.738 83.0844C107.298 83.0844 108.587 83.6277 109.605 84.7143C110.656 85.7669 111.182 87.0403 111.182 88.5344C111.182 90.0625 110.656 91.3698 109.605 92.4564C108.587 93.5091 107.298 94.0354 105.738 94.0354ZM105.738 91.7433C106.654 91.7433 107.383 91.4377 107.926 90.8265C108.502 90.1813 108.791 89.4173 108.791 88.5344C108.791 87.6515 108.502 86.9045 107.926 86.2933C107.349 85.682 106.62 85.3764 105.738 85.3764C104.822 85.3764 104.076 85.682 103.499 86.2933C102.923 86.9045 102.635 87.6515 102.635 88.5344C102.635 89.4173 102.923 90.1813 103.499 90.8265C104.076 91.4377 104.822 91.7433 105.738 91.7433Z" fill="white"/>
<path d="M68.7436 133.306V129.894H75.9681C78.444 129.894 80.53 129.3 82.2259 128.111C83.9557 126.923 85.2785 125.208 86.1942 122.967C87.11 120.691 87.5679 117.958 87.5679 114.766C87.5679 111.608 87.11 108.942 86.1942 106.769C85.3124 104.562 84.0066 102.898 82.2768 101.778C80.5809 100.623 78.478 100.046 75.9681 100.046H68.5909V96.6331H75.9681C79.1563 96.6331 81.9037 97.3632 84.2101 98.8233C86.5504 100.249 88.348 102.321 89.603 105.037C90.8579 107.754 91.4854 111.031 91.4854 114.868C91.4854 118.705 90.841 121.999 89.5521 124.749C88.2971 127.5 86.5165 129.622 84.2101 131.116C81.9037 132.576 79.1733 133.306 76.0189 133.306H68.7436ZM66.2506 133.306V96.6331H70.0664V133.306H66.2506Z" fill="white"/>
<path fill-rule="evenodd" clip-rule="evenodd" d="M68.9913 23.5812C56.98 36.7141 46.6182 54.617 37.2587 73.6544L37.2585 73.6548C35.0544 78.134 32.6876 82.7177 30.2634 87.4128C17.216 112.681 2.50176 141.178 2.50176 174C2.50176 206.822 17.216 235.319 30.2634 260.587C32.6877 265.282 35.0544 269.866 37.2585 274.345L37.2587 274.346C46.6182 293.383 56.98 311.286 68.9913 324.419C80.9967 337.545 94.5459 345.797 110.302 345.797C126.058 345.797 139.607 337.545 151.612 324.419C163.624 311.286 173.985 293.383 183.345 274.346L183.345 274.345C185.549 269.866 187.916 265.282 190.34 260.587C203.388 235.319 218.102 206.822 218.102 174C218.102 141.178 203.388 112.681 190.34 87.4128C187.916 82.7177 185.549 78.134 183.345 73.6548L183.345 73.6544C173.985 54.617 163.624 36.7141 151.612 23.5812C139.607 10.4547 126.058 2.20253 110.302 2.20253C94.5459 2.20253 80.9967 10.4547 68.9913 23.5812ZM67.3687 22.0938C79.6019 8.71831 93.6956 0 110.302 0C126.908 0 141.002 8.71831 153.235 22.0938C165.462 35.4627 175.934 53.5932 185.319 72.6814C187.488 77.0906 189.831 81.6255 192.242 86.2897C205.292 111.545 220.302 140.592 220.302 174C220.302 207.408 205.292 236.455 192.242 261.71C189.831 266.375 187.488 270.909 185.319 275.319C175.934 294.407 165.462 312.537 153.235 325.906C141.002 339.282 126.908 348 110.302 348C93.6956 348 79.6019 339.282 67.3687 325.906C55.1416 312.537 44.6695 294.407 35.285 275.319C33.1154 270.909 30.772 266.375 28.3618 261.71C15.3115 236.455 0.301758 207.408 0.301758 174C0.301758 140.592 15.3115 111.545 28.3618 86.2897C30.772 81.6255 33.1154 77.0906 35.285 72.6814C44.6695 53.5932 55.1416 35.4627 67.3687 22.0938Z" fill="white"/>
<path fill-rule="evenodd" clip-rule="evenodd" d="M67.6511 257.39C64.2314 254.103 61.0716 251.089 54.6628 251.089V248.886C61.9805 248.886 65.6954 252.457 69.1414 255.769L69.1746 255.801C72.5943 259.087 75.7541 262.101 82.1628 262.101C88.5716 262.101 91.7314 259.087 95.148 255.801L95.1856 255.765C98.627 252.455 102.337 248.886 109.641 248.886C116.959 248.886 120.673 252.457 124.119 255.769L124.153 255.801C127.572 259.087 130.732 262.101 137.141 262.101C143.55 262.101 146.709 259.087 150.129 255.801L150.162 255.769C153.608 252.457 157.323 248.886 164.641 248.886V251.089C158.232 251.089 155.072 254.103 151.653 257.39L151.619 257.421C148.173 260.733 144.459 264.304 137.141 264.304C129.823 264.304 126.108 260.733 122.662 257.421L122.629 257.39C119.209 254.103 116.05 251.089 109.641 251.089C103.244 251.089 100.09 254.102 96.6722 257.389L96.6431 257.417C93.1984 260.731 89.4835 264.304 82.1628 264.304C74.8451 264.304 71.1302 260.733 67.6843 257.421L67.6511 257.39Z" fill="white"/>
<path fill-rule="evenodd" clip-rule="evenodd" d="M75.9877 53.3232C76.5952 53.3232 77.0877 53.8163 77.0877 54.4245V63.4769C77.0877 64.0851 76.5952 64.5782 75.9877 64.5782C75.3802 64.5782 74.8877 64.0851 74.8877 63.4769V54.4245C74.8877 53.8163 75.3802 53.3232 75.9877 53.3232Z" fill="white"/>
<path fill-rule="evenodd" clip-rule="evenodd" d="M70.29 58.9839C70.29 58.3757 70.7825 57.8826 71.39 57.8826H80.608C81.2156 57.8826 81.708 58.3757 81.708 58.9839C81.708 59.5921 81.2156 60.0852 80.608 60.0852H71.39C70.7825 60.0852 70.29 59.5921 70.29 58.9839Z" fill="white"/>
<path fill-rule="evenodd" clip-rule="evenodd" d="M131.12 31.1437C131.727 31.1437 132.22 31.6367 132.22 32.2449V45.35C132.22 45.9582 131.727 46.4513 131.12 46.4513C130.512 46.4513 130.02 45.9582 130.02 45.35V32.2449C130.02 31.6367 130.512 31.1437 131.12 31.1437Z" fill="white"/>
<path fill-rule="evenodd" clip-rule="evenodd" d="M123.353 38.8746C123.353 38.2664 123.846 37.7733 124.453 37.7733H137.807C138.415 37.7733 138.907 38.2664 138.907 38.8746C138.907 39.4828 138.415 39.9759 137.807 39.9759H124.453C123.846 39.9759 123.353 39.4828 123.353 38.8746Z" fill="white"/>
<path fill-rule="evenodd" clip-rule="evenodd" d="M147.114 58.6755C147.721 58.6755 148.214 59.1686 148.214 59.7768V70.7234C148.214 71.3316 147.721 71.8247 147.114 71.8247C146.506 71.8247 146.014 71.3316 146.014 70.7234V59.7768C146.014 59.1686 146.506 58.6755 147.114 58.6755Z" fill="white"/>
<path fill-rule="evenodd" clip-rule="evenodd" d="M140.447 65.3052C140.447 64.697 140.94 64.2039 141.547 64.2039H152.679C153.287 64.2039 153.779 64.697 153.779 65.3052C153.779 65.9134 153.287 66.4064 152.679 66.4064H141.547C140.94 66.4064 140.447 65.9134 140.447 65.3052Z" fill="white"/>
</g>
<defs>
<clipPath id="clip0_1_58">
<rect width="220" height="348" fill="white"/>
</clipPath>
</defs>
</svg>
