<svg width="56" height="56" viewBox="0 0 56 56" fill="none" xmlns="http://www.w3.org/2000/svg">
<path fill-rule="evenodd" clip-rule="evenodd" d="M17.8602 4.22691C14.9119 6.30252 12.3686 9.13199 10.0712 12.1408L10.0712 12.1408C9.53019 12.8488 8.94926 13.5732 8.35421 14.3152C5.15167 18.3089 1.54 22.8127 1.54 28C1.54 33.1873 5.15167 37.6912 8.35421 41.6848C8.94927 42.4268 9.53019 43.1512 10.0712 43.8592L10.0712 43.8592C12.3686 46.868 14.9119 49.6975 17.8602 51.7731C20.8069 53.8477 24.1327 55.1519 28 55.1519C31.8674 55.1519 35.1931 53.8477 38.1398 51.7731C41.0881 49.6975 43.6314 46.868 45.9288 43.8592L45.9288 43.8592C46.4698 43.1512 47.0507 42.4268 47.6458 41.6848C50.8483 37.6912 54.46 33.1873 54.46 28C54.46 22.8127 50.8483 18.3089 47.6458 14.3152C47.0507 13.5732 46.4698 12.8488 45.9288 12.1408L45.9288 12.1408C43.6314 9.13199 41.0881 6.30252 38.1398 4.22691C35.1931 2.15233 31.8674 0.848101 28 0.848101C24.1327 0.848101 20.8069 2.15233 17.8602 4.22691ZM17.4619 3.99184C20.4646 1.87789 23.924 0.5 28 0.5C32.0761 0.5 35.5354 1.87789 38.5381 3.99184C41.5393 6.10474 44.1097 8.97019 46.4132 11.987C46.9458 12.6839 47.5209 13.4006 48.1125 14.1377C51.3158 18.1292 55 22.72 55 28C55 33.28 51.3158 37.8708 48.1125 41.8623C47.5209 42.5994 46.9457 43.3162 46.4132 44.013C44.1097 47.0298 41.5393 49.8953 38.5381 52.0082C35.5354 54.1221 32.0761 55.5 28 55.5C23.924 55.5 20.4646 54.1221 17.4619 52.0082C14.4607 49.8953 11.8903 47.0298 9.5868 44.013C9.05425 43.3161 8.47906 42.5994 7.88747 41.8623C4.68421 37.8708 1 33.28 1 28C1 22.72 4.68421 18.1292 7.88747 14.1377C8.47906 13.4006 9.05425 12.6839 9.5868 11.987C11.8903 8.97019 14.4607 6.10474 17.4619 3.99184Z" stroke="black" stroke-width="0.8" stroke-miterlimit="10"/>
<path fill-rule="evenodd" clip-rule="evenodd" d="M14.9103 29.139C13.8533 28.119 12.8766 27.1835 10.8958 27.1835V26.5C13.1576 26.5 14.3058 27.6081 15.3709 28.6359L15.3812 28.6459C16.4382 29.6659 17.4149 30.6013 19.3958 30.6013C21.3766 30.6013 22.3533 29.6659 23.4093 28.6459L23.421 28.6347C24.4847 27.6074 25.6313 26.5 27.889 26.5C30.1508 26.5 31.299 27.6081 32.3641 28.6359L32.3744 28.6459C33.4314 29.6659 34.4081 30.6013 36.389 30.6013C38.3699 30.6013 39.3465 29.6659 40.4035 28.6459L40.4138 28.6359C41.4789 27.6081 42.6271 26.5 44.889 26.5V27.1835C42.9081 27.1835 41.9314 28.119 40.8744 29.139L40.8642 29.1489C39.799 30.1767 38.6508 31.2848 36.389 31.2848C34.1271 31.2848 32.9789 30.1767 31.9138 29.1489L31.9035 29.139C30.8465 28.119 29.8699 27.1835 27.889 27.1835C25.9117 27.1835 24.9368 28.1187 23.8805 29.1389L23.8715 29.1475C22.8068 30.1758 21.6585 31.2848 19.3958 31.2848C17.1339 31.2848 15.9857 30.1767 14.9206 29.1489L14.9103 29.139Z" stroke="black" stroke-width="0.8" stroke-miterlimit="10"/>
</svg>
